<svg xmlns="http://www.w3.org/2000/svg" version="1.1" xmlns:xlink="http://www.w3.org/1999/xlink" xmlns:svgjs="http://svgjs.com/svgjs" width="600px" height="600px"><svg version="1.1" width="600px" height="600px" viewBox="0 0 200 200" style="overflow:hidden!important;" id="SvgjsSvg1207" sodipodi:docname="avatar.svg" inkscape:version="1.1 (c68e22c387, 2021-05-23)" xmlns:inkscape="http://www.inkscape.org/namespaces/inkscape" xmlns:sodipodi="http://sodipodi.sourceforge.net/DTD/sodipodi-0.dtd" xmlns="http://www.w3.org/2000/svg" xmlns:svg="http://www.w3.org/2000/svg">
  <sodipodi:namedview id="SvgjsSodipodi:namedview1206" pagecolor="#ffffff" bordercolor="#666666" borderopacity="1.0" inkscape:pageshadow="2" inkscape:pageopacity="0.0" inkscape:pagecheckerboard="0" showgrid="false" inkscape:zoom="0.43333333" inkscape:cx="252.69231" inkscape:cy="370.38462" inkscape:window-width="1366" inkscape:window-height="705" inkscape:window-x="-8" inkscape:window-y="-8" inkscape:window-maximized="1" inkscape:current-layer="svg209"></sodipodi:namedview>
  <defs id="SvgjsDefs1205">
    <radialGradient id="SvgjsRadialGradient1204" cx="100" cy="114" r="41" gradientUnits="userSpaceOnUse" class="svga-on-canvas-facehighlight-gradient-single-0">
      <stop id="SvgjsStop1203" stop-opacity="0.5" stop-color="#ffe4d6" offset="0"></stop>
      <stop id="SvgjsStop1202" stop-opacity="0" stop-color="#f0c7b1" offset="0.9"></stop>
    </radialGradient>
    <radialGradient id="SvgjsRadialGradient1201" cx="100" cy="54" r="37" gradientUnits="userSpaceOnUse" class="svga-on-canvas-facehighlight-gradient-single-1">
      <stop id="SvgjsStop1200" stop-opacity="0.5" stop-color="#ffe4d6" offset="0"></stop>
      <stop id="SvgjsStop1199" stop-opacity="0" stop-color="#f0c7b1" offset="0.9"></stop>
    </radialGradient>
    <radialGradient id="SvgjsRadialGradient1198" cx="-582.838" cy="-519.099" r="59.745" gradientTransform="matrix(0.0991 8.856319e-004 -0.0011 0.0991 131.1134 135.9855)" gradientUnits="userSpaceOnUse" class="svga-on-canvas-eyesiris-gradient-left-2">
      <stop id="SvgjsStop1197" stop-opacity="1" stop-color="#ffffff" offset="0"></stop>
      <stop id="SvgjsStop1196" stop-opacity="0" stop-color="#ffffff" offset="1"></stop>
    </radialGradient>
    <linearGradient id="SvgjsLinearGradient1195" x1="122.67" y1="88.268" x2="123.606" y2="87.152" gradientTransform="matrix(1 0 0 1 -52 0)" gradientUnits="userSpaceOnUse" class="svga-on-canvas-eyesiris-gradient-left-5">
      <stop id="SvgjsStop1194" stop-opacity="1" stop-color="#ffffff" offset="0"></stop>
      <stop id="SvgjsStop1193" stop-opacity="0" stop-color="#ffffff" offset="1"></stop>
    </linearGradient>
    <linearGradient id="SvgjsLinearGradient1192" x1="129.636" y1="79.822" x2="127.91" y2="81.879" gradientTransform="matrix(1 0 0 1 -52 0)" gradientUnits="userSpaceOnUse" class="svga-on-canvas-eyesiris-gradient-left-7">
      <stop id="SvgjsStop1191" stop-opacity="1" stop-color="#ffffff" offset="0"></stop>
      <stop id="SvgjsStop1190" stop-opacity="0" stop-color="#ffffff" offset="1"></stop>
    </linearGradient>
    <radialGradient id="SvgjsRadialGradient1189" cx="-582.833" cy="-519.102" r="59.747" gradientTransform="matrix(0.0991 8.856319e-004 -0.0011 0.0991 183.1126 135.9856)" gradientUnits="userSpaceOnUse" class="svga-on-canvas-eyesiris-gradient-right-2">
      <stop id="SvgjsStop1188" stop-opacity="1" stop-color="#ffffff" offset="0"></stop>
      <stop id="SvgjsStop1187" stop-opacity="0" stop-color="#ffffff" offset="1"></stop>
    </radialGradient>
    <linearGradient id="SvgjsLinearGradient1186" x1="122.67" y1="88.268" x2="123.606" y2="87.152" gradientUnits="userSpaceOnUse" class="svga-on-canvas-eyesiris-gradient-right-5">
      <stop id="SvgjsStop1185" stop-opacity="1" stop-color="#ffffff" offset="0"></stop>
      <stop id="SvgjsStop1184" stop-opacity="0" stop-color="#ffffff" offset="1"></stop>
    </linearGradient>
    <linearGradient id="SvgjsLinearGradient1183" x1="129.636" y1="79.822" x2="127.91" y2="81.879" gradientUnits="userSpaceOnUse" class="svga-on-canvas-eyesiris-gradient-right-7">
      <stop id="SvgjsStop1182" stop-opacity="1" stop-color="#ffffff" offset="0"></stop>
      <stop id="SvgjsStop1181" stop-opacity="0" stop-color="#ffffff" offset="1"></stop>
    </linearGradient>
    <radialGradient id="SvgjsRadialGradient1180" cx="126.452" cy="84.563" r="15.179" gradientTransform="matrix(-0.9148,0.0479,0.0523,0.9986,184.4328,-6.6013)" gradientUnits="userSpaceOnUse" class="svga-on-canvas-eyesback-gradient-left-0">
      <stop id="SvgjsStop1179" stop-opacity="1" stop-color="#ffffff" offset="0"></stop>
      <stop id="SvgjsStop1178" stop-opacity="1" stop-color="#fdfefe" offset="0.544"></stop>
      <stop id="SvgjsStop1177" stop-opacity="1" stop-color="#f6f8f9" offset="0.74"></stop>
      <stop id="SvgjsStop1176" stop-opacity="1" stop-color="#eaeff2" offset="0.879"></stop>
      <stop id="SvgjsStop1175" stop-opacity="1" stop-color="#d9e3e8" offset="0.992"></stop>
      <stop id="SvgjsStop1174" stop-opacity="1" stop-color="#d8e2e7" offset="1"></stop>
    </radialGradient>
    <radialGradient id="SvgjsRadialGradient1173" cx="126.017" cy="84.585" r="15.179" gradientTransform="matrix(0.9148,0.0479,-0.0523,0.9986,15.5672,-6.6013)" gradientUnits="userSpaceOnUse" class="svga-on-canvas-eyesback-gradient-right-0">
      <stop id="SvgjsStop1172" stop-opacity="1" stop-color="#ffffff" offset="0"></stop>
      <stop id="SvgjsStop1171" stop-opacity="1" stop-color="#fdfefe" offset="0.544"></stop>
      <stop id="SvgjsStop1170" stop-opacity="1" stop-color="#f6f8f9" offset="0.74"></stop>
      <stop id="SvgjsStop1169" stop-opacity="1" stop-color="#eaeff2" offset="0.879"></stop>
      <stop id="SvgjsStop1168" stop-opacity="1" stop-color="#d9e3e8" offset="0.992"></stop>
      <stop id="SvgjsStop1167" stop-opacity="1" stop-color="#d8e2e7" offset="1"></stop>
    </radialGradient>
    <radialGradient id="SvgjsRadialGradient1166" cx="126.452" cy="84.563" r="15.179" gradientTransform="matrix(-0.9148 0.0479 0.0523 0.9986 184.4328 -6.6013)" gradientUnits="userSpaceOnUse" class="svga-on-canvas-eyesfront-gradient-left-0">
      <stop id="SvgjsStop1165" stop-opacity="1" stop-color="#ffffff" offset="0"></stop>
      <stop id="SvgjsStop1164" stop-opacity="1" stop-color="#fdfefe" offset="0.544"></stop>
      <stop id="SvgjsStop1163" stop-opacity="1" stop-color="#f6f8f9" offset="0.74"></stop>
      <stop id="SvgjsStop1162" stop-opacity="1" stop-color="#eaeff2" offset="0.879"></stop>
      <stop id="SvgjsStop1161" stop-opacity="1" stop-color="#d9e3e8" offset="0.992"></stop>
      <stop id="SvgjsStop1160" stop-opacity="1" stop-color="#d8e2e7" offset="1"></stop>
    </radialGradient>
    <radialGradient id="SvgjsRadialGradient1159" cx="122.781" cy="80.48" fx="136.429" fy="80.114" r="16.914" gradientTransform="matrix(0.99,0.1411,0.1085,-0.7608,-53.0622,124.3787)" gradientUnits="userSpaceOnUse" class="svga-on-canvas-eyesfront-gradient-left-3">
      <stop id="SvgjsStop1158" stop-opacity="1" stop-color="#e1ac8f" offset="0"></stop>
      <stop id="SvgjsStop1157" stop-opacity="0.3" stop-color="#e1ac8f" offset="0.7"></stop>
      <stop id="SvgjsStop1156" stop-opacity="0" stop-color="#f0c7b1" offset="1"></stop>
    </radialGradient>
    <radialGradient id="SvgjsRadialGradient1155" cx="70.049" cy="105.782" r="29.51" gradientTransform="matrix(1.0336,0,0,1.0336,-1.9413,1.255)" gradientUnits="userSpaceOnUse" class="svga-on-canvas-eyesfront-gradient-left-4">
      <stop id="SvgjsStop1154" stop-opacity="0" stop-color="#000000" offset="0.95"></stop>
      <stop id="SvgjsStop1153" stop-opacity="0.2" stop-color="#000000" offset="1"></stop>
    </radialGradient>
    <radialGradient id="SvgjsRadialGradient1152" cx="126.017" cy="84.585" r="15.179" gradientTransform="matrix(0.9148 0.0479 -0.0523 0.9986 15.5672 -6.6013)" gradientUnits="userSpaceOnUse" class="svga-on-canvas-eyesfront-gradient-right-0">
      <stop id="SvgjsStop1151" stop-opacity="1" stop-color="#ffffff" offset="0"></stop>
      <stop id="SvgjsStop1150" stop-opacity="1" stop-color="#fdfefe" offset="0.544"></stop>
      <stop id="SvgjsStop1149" stop-opacity="1" stop-color="#f6f8f9" offset="0.74"></stop>
      <stop id="SvgjsStop1148" stop-opacity="1" stop-color="#eaeff2" offset="0.879"></stop>
      <stop id="SvgjsStop1147" stop-opacity="1" stop-color="#d9e3e8" offset="0.992"></stop>
      <stop id="SvgjsStop1146" stop-opacity="1" stop-color="#d8e2e7" offset="1"></stop>
    </radialGradient>
    <radialGradient id="SvgjsRadialGradient1145" cx="122.382" cy="80.48" fx="136.03" fy="80.114" r="16.914" gradientTransform="matrix(-0.99,0.1411,-0.1085,-0.7608,252.2674,124.4351)" gradientUnits="userSpaceOnUse" class="svga-on-canvas-eyesfront-gradient-right-3">
      <stop id="SvgjsStop1144" stop-opacity="1" stop-color="#e1ac8f" offset="0"></stop>
      <stop id="SvgjsStop1143" stop-opacity="0.3" stop-color="#e1ac8f" offset="0.7"></stop>
      <stop id="SvgjsStop1142" stop-opacity="0" stop-color="#f0c7b1" offset="1"></stop>
    </radialGradient>
    <radialGradient id="SvgjsRadialGradient1141" cx="70.436" cy="105.782" r="29.51" gradientTransform="matrix(-1.0336,0,0,1.0336,201.9413,1.255)" gradientUnits="userSpaceOnUse" class="svga-on-canvas-eyesfront-gradient-right-4">
      <stop id="SvgjsStop1140" stop-opacity="0" stop-color="#000000" offset="0.95"></stop>
      <stop id="SvgjsStop1139" stop-opacity="0.2" stop-color="#000000" offset="1"></stop>
    </radialGradient>
    <linearGradient id="SvgjsLinearGradient1138" x1="132" y1="78" x2="126" y2="84" gradientTransform="matrix(1 0 0 1 -50 0)" gradientUnits="userSpaceOnUse" class="svga-on-canvas-eyesiris-gradient-left-6">
      <stop id="SvgjsStop1137" stop-opacity="1" stop-color="#ffffff" offset="0"></stop>
      <stop id="SvgjsStop1136" stop-opacity="0" stop-color="#ffffff" offset="1"></stop>
    </linearGradient>
    <linearGradient id="SvgjsLinearGradient1135" x1="132" y1="78" x2="126" y2="84" gradientUnits="userSpaceOnUse" class="svga-on-canvas-eyesiris-gradient-right-6">
      <stop id="SvgjsStop1134" stop-opacity="1" stop-color="#ffffff" offset="0"></stop>
      <stop id="SvgjsStop1133" stop-opacity="0" stop-color="#ffffff" offset="1"></stop>
    </linearGradient>
    <linearGradient id="SvgjsLinearGradient1132" x1="127.637" y1="79.822" x2="125.91" y2="81.88" gradientTransform="matrix(1 0 0 1 -50 0)" gradientUnits="userSpaceOnUse" class="svga-on-canvas-eyesiris-gradient-left-1">
      <stop id="SvgjsStop1131" stop-opacity="1" stop-color="#ffffff" offset="0"></stop>
      <stop id="SvgjsStop1130" stop-opacity="0" stop-color="#ffffff" offset="1"></stop>
    </linearGradient>
    <linearGradient id="SvgjsLinearGradient1129" x1="129.637" y1="79.823" x2="127.91" y2="81.881" gradientUnits="userSpaceOnUse" class="svga-on-canvas-eyesiris-gradient-right-1">
      <stop id="SvgjsStop1128" stop-opacity="1" stop-color="#ffffff" offset="0"></stop>
      <stop id="SvgjsStop1127" stop-opacity="0" stop-color="#ffffff" offset="1"></stop>
    </linearGradient>
    <radialGradient id="SvgjsRadialGradient1126" cx="100" cy="100" r="150" gradientUnits="userSpaceOnUse" class="svga-on-canvas-backs-gradient-single-1">
      <stop id="SvgjsStop1125" stop-opacity="0" stop-color="#ecf0f1" offset="0"></stop>
      <stop id="SvgjsStop1124" stop-opacity="1" stop-color="#c6dce2" offset="0.2"></stop>
      <stop id="SvgjsStop1123" stop-opacity="0" stop-color="#c6dce2" offset="1"></stop>
    </radialGradient>
    <linearGradient id="SvgjsLinearGradient1122" x1="100" y1="110" x2="100" y2="73" gradientUnits="userSpaceOnUse" class="svga-on-canvas-glasses-gradient-single-0">
      <stop id="SvgjsStop1121" stop-opacity="0.6" stop-color="#151124" offset="0"></stop>
      <stop id="SvgjsStop1120" stop-opacity="1" stop-color="#151124" offset="1"></stop>
    </linearGradient>
    <linearGradient id="SvgjsLinearGradient1119" x1="100" y1="172" x2="100" y2="123" gradientUnits="userSpaceOnUse" class="svga-on-canvas-chinshadow-gradient-single-0">
      <stop id="SvgjsStop1118" stop-opacity="0.8" stop-color="#e1ac8f" offset="0"></stop>
      <stop id="SvgjsStop1117" stop-opacity="1" stop-color="#c27b55" offset="0.7"></stop>
    </linearGradient>
    <linearGradient id="SvgjsLinearGradient1116" x1="100" y1="140" x2="100" y2="137" gradientUnits="userSpaceOnUse" class="svga-on-canvas-mouth-gradient-single-0">
      <stop id="SvgjsStop1115" stop-opacity="1" stop-color="#e8b9a0" offset="0.1"></stop>
      <stop id="SvgjsStop1114" stop-opacity="1" stop-color="#e1ac8f" offset="1"></stop>
    </linearGradient>
  </defs>
  <g id="SvgjsG1113">
    <path id="SvgjsPath1112" d="M 241.63902,251.92308 H -42.20713 V -25 h 283.84615 z" fill="#ecf0f1" stroke-width="1.12145" opacity="1" style="fill:#b3b8bf;fill-opacity:1"></path>
    <g id="SvgjsG1111" transform="translate(0,19.283518)">
      <g id="SvgjsG1110" transform="matrix(0.9499999,0,0,0.9499999,4.985807,5.9422465)">
        <g id="SvgjsG1109">
          <g id="SvgjsG1108" transform="matrix(0.9799999,0,0,0.9998999,2.00001,0.01001)">
            <path id="SvgjsPath1107" d="m 100.5,100.5 h -1 v -1 h 1 z" fill="#080806" stroke-width="none" opacity="1" stroke="none"></path>
          </g>
        </g>
        <g id="SvgjsG1106">
          <path id="SvgjsPath1105" d="m 195.417,199.778 c -2.196,-4.746 -8.195,-11.779 -14.86,-13.722 -8.239,-2.403 -26.837,-5.308 -33.733,-6.923 -5.528,-1.296 -16.662,-11.294 -20.564,-14.65 -0.7,-0.6 -1.273,-1.839 -1.287,-2.76 -0.139,-10.864 4.195,-39.724 4.195,-39.724 H 100 70.833 c 0,0 4.334,28.859 4.193,39.724 -0.011,0.921 -0.587,2.16 -1.285,2.76 -3.902,3.356 -15.036,13.354 -20.564,14.65 -6.897,1.615 -25.495,4.619 -33.733,7.022 -6.667,1.942 -12.664,8.876 -14.86,13.622 -3.708,8.008 -4.584,22.5 -4.584,35 h 100 100 c 0,-12.499 -0.877,-26.991 -4.583,-34.999 z" fill="#f0c7b1" stroke-width="none" opacity="1" stroke="none"></path>
          <path id="SvgjsPath1104" d="m 159.156,184.058 c 24.342,3.542 34.586,8.708 37.794,50.721 H 200 c 0,-12.5 -0.877,-26.992 -4.583,-35 -2.196,-4.746 -8.195,-11.779 -14.86,-13.722 -8.239,-2.403 -26.837,-5.308 -33.733,-6.923 -5.528,-1.296 -18.242,-12.069 -21.643,-16.35 3.36,4.704 12.791,15.605 21.054,18.46 3.953,1.366 7.245,1.988 12.921,2.814 z m -105.39,-2.814 c 8.263,-2.854 17.693,-13.756 21.054,-18.46 -3.4,4.28 -16.114,15.054 -21.643,16.35 -6.896,1.615 -25.494,4.619 -33.733,7.022 -6.665,1.942 -12.664,8.876 -14.86,13.622 -3.706,8.008 -4.583,22.5 -4.583,35 h 3.05 c 3.188,-41.744 13.475,-47.183 37.794,-50.721 5.675,-0.825 8.968,-1.447 12.921,-2.813 z" fill="#ffe4d6" stroke-width="none" opacity="1" stroke="none"></path>
          <path id="SvgjsPath1103" d="m 95.646,197.62 c 0,0 -5.074,-1.609 -7.083,-2.379 -10.449,-4.009 -44.395,-6.607 -44.395,-6.607 0,0 35.754,1.419 43.644,2.779 -0.458,-4.767 -3.017,-20.004 -3.017,-20.004 0,0 5.149,16.815 6.409,21.057 0.674,2.268 4.442,5.154 4.442,5.154 z m 10.799,-1.342 c -0.089,0.073 -0.191,0.168 -0.302,0.268 0.113,-0.085 0.215,-0.174 0.302,-0.268 z m -10.799,1.342 c 0,0 2.893,2.992 4.347,3.03 1.91,0.051 4.828,-2.899 6.151,-4.104 -1.265,0.957 -4.159,1.391 -5.31,1.436 -1.33,0.051 -5.188,-0.362 -5.188,-0.362 z m 21.018,-7.519 c -1.545,0.248 -4.386,0.789 -4.386,0.789 L 114.565,176 c -0.646,3.071 -4.474,16.211 -8.12,20.278 1.91,-1.616 6.158,-2.391 8.324,-2.704 10.236,-1.484 10.232,-1.483 41.062,-4.94 0,0 -29.071,-0.155 -39.167,1.467 z" fill="#e1ac8f" stroke-width="none" opacity="1" stroke="none"></path>
          <path id="SvgjsPath1102" d="m 195.417,199.778 c -2.196,-4.746 -8.195,-11.779 -14.86,-13.722 -8.239,-2.403 -26.837,-5.308 -33.733,-6.923 -5.528,-1.296 -16.662,-11.294 -20.564,-14.65 -0.7,-0.6 -1.273,-1.839 -1.287,-2.76 -0.139,-10.864 4.195,-39.724 4.195,-39.724 H 100 70.833 c 0,0 4.334,28.859 4.193,39.724 -0.011,0.921 -0.587,2.16 -1.285,2.76 -3.902,3.356 -15.036,13.354 -20.564,14.65 -6.897,1.615 -25.495,4.619 -33.733,7.022 -6.667,1.942 -12.664,8.876 -14.86,13.622 -3.708,8.008 -4.584,22.5 -4.584,35 h 100 100 c 0,-12.499 -0.877,-26.991 -4.583,-34.999 z" fill="none" stroke="#c27b55" stroke-width="1.5" opacity="1"></path>
        </g>
        <g id="SvgjsG1101">
          <path id="SvgjsPath1100" d="m 75.517,163.052 c 6.979,4.54 16.307,8.814 24.485,8.814 7.828,0 17.345,-4.309 24.458,-8.869 -0.145,-0.428 -0.233,-0.862 -0.239,-1.264 -0.126,-9.877 3.345,-34.021 4.076,-38.983 H 71.703 c 0.73,4.963 4.202,29.106 4.074,38.982 -0.005,0.414 -0.101,0.871 -0.26,1.32 z" fill="url(#SvgjsLinearGradient4804)" opacity="1" style="fill:url(#SvgjsLinearGradient4804)"></path>
        </g>
        <g id="SvgjsG1099">
          <path id="SvgjsPath1098" d="m -3.682,236.192 c -2.914,-24.293 8.022,-47.09 34.496,-54.611 7.77,-2.208 5.691,-3.341 6.867,-3.41 -0.039,-0.211 -0.045,-0.2 -0.045,-0.63 H 37.6 c 0.087,-8.03 9.028,-6.453 11.587,-6.984 10.121,-2.158 13.558,-12.786 25.115,-9.985 0.284,2.437 0.075,5.248 -1.371,15.663 10.899,23.466 22.722,21.437 26.925,34.571 3.815,-11.746 17.339,-13.617 27.306,-34.576 -0.655,-5.884 -2.083,-11.033 -1.482,-15.935 l 0.057,-0.042 c 7.744,-2.583 11.127,0.874 14.21,3.854 9.397,9.083 14.382,3.325 19.085,7.457 1.871,1.659 2.547,3.997 2.547,6.518 21.412,3.11 45.974,9.898 41.089,57.481 l 0.096,0.104 c -21.67,0 -145.218,5.428 -206.446,0.525 z" fill="#386e77" stroke-width="none" opacity="1" stroke="none"></path>
          <path id="SvgjsPath1097" d="m 100.268,209.685 c 4.229,-10.638 16.946,-13.132 26.543,-32.755 0.098,-0.108 0.347,-0.591 0.656,-1.237 -0.164,-1.826 -0.372,-3.747 -1.213,-5.757 -0.522,-3.35 -0.939,-6.489 -0.587,-9.535 1.974,0.578 3.842,1.262 5.12,2.66 1.882,2.052 0.455,5.609 -1.346,9.042 -3.378,14.741 -11.847,25.39 -29.173,37.582 z m 69.014,-10.826 c 2.938,10.376 4.895,26.928 2.544,37.445 1.962,-0.045 2.686,-0.097 4.506,-0.138 0.814,-11.046 -1.178,-28.686 -7.05,-37.307 z m -31.678,1.876 c -12.805,7.48 -25.687,10.358 -37.321,20.291 -11.64,-9.904 -24.647,-11.637 -37.453,-19.108 -5.87,-2.36 -14.874,-10.699 -20.377,-16.572 17.313,26.284 29.706,18.823 57.434,36.538 27.736,-17.715 40.205,-11.692 57.516,-37.974 -5.503,5.872 -13.927,14.48 -19.799,16.825 z M 99.81,210.936 C 95.572,200.292 83.351,196.553 73.754,176.93 c -0.093,-0.108 -0.343,-0.591 -0.652,-1.237 0.156,-1.826 -0.262,-3.841 0.586,-5.857 0.521,-3.358 0.748,-6.092 0.393,-9.132 -1.969,0.574 -3.025,0.959 -4.303,2.357 -1.88,2.052 -0.453,5.609 1.347,9.042 3.377,14.741 11.354,26.637 28.685,38.833 z M 27.163,197.688 c -4.305,9.396 -4.34,27.432 -3.528,38.479 1.821,0.041 2.548,0.093 4.506,0.138 -2.35,-10.518 -1.762,-28.045 -0.978,-38.617 z m 72.725,15.276 c 16.389,-4.909 33.813,-13.894 48.305,-35.847 -13.084,17.643 -32.525,28.063 -47.926,34.455 -15.89,-5.762 -34.915,-17.221 -46.006,-32.635 12.996,21.289 29.247,29.118 45.627,34.027 z" fill="#265e68" stroke-width="none" opacity="1" stroke="none"></path>
          <path id="SvgjsPath1096" d="m 202.762,235.667 c -0.115,0 -0.256,0.001 -0.374,0.001 -0.427,-48.615 -27.497,-50.574 -42.48,-53.725 -2.345,0 -3.563,-6.505 -5.288,-8.24 -1.467,-1.475 -12.769,-1.475 -16.348,-11.169 0.583,0.513 1.131,1.052 1.674,1.573 9.397,9.083 14.382,3.325 19.085,7.457 1.871,1.659 2.547,3.997 2.547,6.518 21.412,3.11 45.974,9.898 41.089,57.481 z m -206.73,1.173 c 0.114,0 0.255,0.001 0.376,0.001 4.759,-38.632 16.029,-50.811 43.543,-55.364 3.451,-1.313 1.634,-3.81 3.362,-5.544 1.467,-1.468 9.627,-1.5 20.924,-13.389 -0.582,0.513 -3.075,1.042 -3.615,1.563 -9.398,9.083 -16.485,6.51 -19.088,7.457 -3.209,1.188 -3.707,4.028 -3.707,6.546 -21.414,3.111 -44.161,14.974 -41.702,58.626 z" fill="#4d7e86" stroke-width="none" opacity="1" stroke="none"></path>
          <path id="SvgjsPath1095" d="m 161.69,177.978 c 0,-9.858 -9.265,-7.895 -13.529,-8.812 -9.409,-2.02 -9.113,-12.916 -22.582,-8.985 -0.574,4.657 0.516,8.738 1.473,15.997 -9.877,20.755 -23.576,23.093 -27.196,34.245 -3.957,-12.38 -16.045,-11.134 -26.81,-34.171 1.498,-10.838 1.648,-13.354 1.36,-15.774 -10.271,-2.349 -12.588,4.32 -21.876,8.776 -5.637,2.642 -7.229,0.263 -12.067,2.633 -2.007,0.968 -3.018,3.609 -2.946,5.767 -0.013,0.01 0,0.01 0,0.01 0,0.139 0,0.267 0.023,0.396 -1.175,0.082 0.546,0.074 -7.323,1.346 -25.363,4.1 -36.61,25.534 -34.005,56.906 11.89,0 1.011,4.382 183.147,-0.077 8.456,-0.214 22.799,-0.447 23.402,-0.447 5.56,-46.523 -17.925,-54.22 -41.071,-57.81 z M -3.624,236.057 c 2.579,-36.004 8.018,-50.026 41.046,-57.329 17.978,29.839 39.98,25.499 62.232,42.189 -20.166,-16.771 -41.302,-14.549 -61.622,-42.583 -0.228,-2.354 1,-4.943 3.535,-5.959 1.796,-0.702 3.72,-0.498 5.6,-0.488 7.087,0.054 12.546,-5.502 17.793,-9.578 2.499,-1.67 6.22,-1.752 9.2,-1.292 0.231,3.874 -1.262,9.721 -1.762,13.845 -1.042,-2.295 -2.029,-4.664 -3.015,-7.022 12.47,36.624 24.903,28.334 30.461,43.525 -1.177,-0.327 -21.014,-7.468 -36.822,-23.188 -3.358,-3.325 -10.011,-10.656 -10.516,-11.34 19.573,26.51 32.079,27.86 47.391,34.691 0,0.01 0.021,0.035 0.021,0.048 0.012,0.036 0.068,0.221 0.086,0.256 0.074,-0.033 0.158,-0.07 0.239,-0.091 0.026,-0.022 0.047,-0.033 0.08,-0.033 2.122,-1.043 16.065,-5.902 26.681,-13.2 10.927,-7.517 23.39,-23.821 22.451,-22.64 -18.253,18.573 -21.075,22.785 -49.212,35.67 -0.027,0 -0.048,-0.01 -0.069,-0.021 -0.022,-0.131 -0.064,-0.257 -0.107,-0.387 0.011,-0.062 0.032,-0.121 0.054,-0.178 4.948,-13.579 19.476,-8.33 31.51,-45.554 -1.232,3.216 -2.527,6.382 -3.979,9.486 -0.457,-5.455 -2.042,-9.756 -1.865,-14.247 2.084,-0.693 7.742,-1.022 9.308,0.542 6.529,5.586 7.059,9.677 17.696,9.677 3.411,0.02 7.871,0.45 8.375,6.708 -0.627,0.922 -5.291,6.431 -9.703,10.809 -15.438,15.368 -29.249,15.664 -50.619,32.007 0.521,0 1.605,-1.131 2.029,-1.418 16.712,-11.864 28.719,-11.677 44.085,-24.249 7.082,-5.785 13.897,-15.044 14.63,-16.222 0.022,0.013 0.059,0.013 0.079,0.013 28.198,4.853 42.321,15.462 40.764,57.069 -126.388,-0.79 -143.547,2.572 -206.055,0.484 z" fill="#0c4049" stroke-width="none" opacity="1" stroke="none"></path>
        </g>
        <g id="SvgjsG1094">
          <g id="SvgjsG1093" transform="translate(1.5)">
            <g id="SvgjsG1092">
              <path id="SvgjsPath1091" d="m 47.001,83.231 c -1.376,-2.453 -5.638,-8.48 -9.98,-7.003 -2.749,0.935 -3.293,3.993 -3.735,6.693 -0.588,3.591 0.471,10.694 1.389,13.26 0.881,2.467 3.533,7.23 5.264,9.045 2.13,2.225 4.775,9.324 5.194,10.061 0.66,1.162 1.536,2.911 4.122,2.692 2.853,-0.244 4.584,-1.85 5.856,-2.121 3.142,-0.666 -4.529,-26.242 -8.11,-32.627 z" fill="#f0c7b1" stroke="#c27b55" stroke-width="1.5" opacity="1"></path>
              <path id="SvgjsPath1090" d="m 44.197,98.104 c -0.132,-0.581 0.007,-1.56 0.142,-2.504 0.124,-0.861 0.24,-1.675 0.169,-2.251 -0.267,-2.154 -1.773,-6.249 -2.757,-8.467 -1.132,-2.554 -2.963,-5.77 -5.262,-6.599 -0.95,-0.343 -1.575,0.067 -1.938,0.484 -0.266,0.305 -0.325,0.665 -0.238,0.707 0.086,0.042 0.285,-0.254 0.572,-0.535 0.235,-0.229 0.579,-0.426 1.051,-0.385 -0.19,1.073 -1.167,6.883 -0.744,10.845 0.333,3.115 1.593,5.442 1.79,5.791 0.029,0.367 0.077,0.726 0.148,1.075 0.929,4.547 4.971,9.717 6.378,11.409 0.259,0.313 0.531,0.497 0.598,0.423 0.066,-0.076 -0.094,-0.387 -0.353,-0.7 -1.388,-1.679 -5.391,-6.831 -6.289,-11.218 -0.952,-4.656 2.318,-11.556 3.048,-13.017 0.371,0.685 0.687,1.344 0.93,1.893 0.19,0.431 0.402,0.936 0.619,1.479 -0.429,0.762 -3.434,6.32 -2.338,10.767 0.406,1.641 2.235,3.755 3.447,4.333 0.667,0.32 0.919,0.797 1.209,1.349 0.336,0.64 0.718,1.365 1.828,1.892 0.225,0.108 0.429,0.151 0.61,0.151 0.313,0 0.551,-0.135 0.725,-0.293 0.018,0.28 0.017,0.64 0.009,0.97 -0.012,0.431 0.042,0.783 0.137,0.791 0.094,0.008 0.196,-0.332 0.207,-0.76 0.016,-0.526 0.013,-1.177 -0.072,-1.488 -0.248,-0.917 -1.008,-1.953 -1.813,-3.048 -0.789,-1.082 -1.607,-2.195 -1.813,-3.094 z M 36.95,94.073 c -2.177,-7.139 0.656,-13.3 1.144,-14.28 0.85,0.822 1.6,1.919 2.21,2.995 -0.444,0.858 -3.263,6.483 -3.354,11.285 z m 9.391,10.442 c -1.004,-0.475 -1.339,-1.115 -1.666,-1.733 -0.293,-0.559 -0.598,-1.136 -1.369,-1.505 -0.168,-0.081 -0.352,-0.203 -0.542,-0.343 -2.486,-6.263 0.272,-9.001 0.963,-9.562 0.211,0.766 0.369,1.468 0.439,2.031 0.063,0.517 -0.052,1.339 -0.167,2.134 -0.142,0.985 -0.286,2.004 -0.137,2.664 0.226,0.982 1.069,2.131 1.884,3.242 0.723,0.986 1.466,2.003 1.721,2.832 -0.108,0.164 -0.45,0.561 -1.126,0.24 z" fill="#c27b55" stroke-width="none" opacity="1" stroke="none"></path>
            </g>
          </g>
          <g id="SvgjsG1089" transform="translate(-1.5)">
            <g id="SvgjsG1088">
              <path id="SvgjsPath1087" d="m 152.736,83.231 c 1.377,-2.453 5.639,-8.48 9.98,-7.003 2.75,0.935 3.293,3.993 3.736,6.693 0.588,3.591 -0.471,10.694 -1.389,13.26 -0.881,2.467 -3.533,7.23 -5.266,9.045 -2.129,2.225 -4.775,9.324 -5.193,10.061 -0.658,1.162 -1.535,2.911 -4.121,2.692 -2.854,-0.244 -4.584,-1.85 -5.857,-2.121 -3.142,-0.666 4.53,-26.242 8.11,-32.627 z" fill="#f0c7b1" stroke="#c27b55" stroke-width="1.5" opacity="1"></path>
              <path id="SvgjsPath1086" d="m 153.727,101.196 c -0.805,1.096 -1.564,2.131 -1.813,3.048 -0.086,0.311 -0.088,0.962 -0.072,1.488 0.012,0.428 0.113,0.768 0.207,0.76 0.094,-0.008 0.148,-0.36 0.137,-0.791 -0.008,-0.331 -0.008,-0.69 0.01,-0.97 0.174,0.158 0.412,0.293 0.725,0.293 0.182,0 0.385,-0.043 0.609,-0.151 1.109,-0.526 1.492,-1.252 1.828,-1.892 0.289,-0.552 0.543,-1.028 1.209,-1.349 1.213,-0.578 3.041,-2.692 3.447,-4.333 1.096,-4.447 -1.908,-10.005 -2.338,-10.767 0.217,-0.544 0.43,-1.049 0.619,-1.479 0.244,-0.549 0.559,-1.208 0.93,-1.893 0.73,1.46 4,8.361 3.049,13.017 -0.896,4.387 -4.9,9.539 -6.289,11.218 -0.258,0.313 -0.418,0.624 -0.352,0.7 0.066,0.074 0.338,-0.109 0.598,-0.423 1.406,-1.692 5.449,-6.862 6.379,-11.409 0.07,-0.35 0.117,-0.708 0.146,-1.075 0.197,-0.349 1.459,-2.676 1.791,-5.791 0.422,-3.961 -0.555,-9.772 -0.744,-10.845 0.473,-0.042 0.814,0.156 1.051,0.385 0.287,0.281 0.486,0.577 0.572,0.535 0.086,-0.042 0.027,-0.402 -0.238,-0.707 -0.363,-0.417 -0.988,-0.827 -1.938,-0.484 -2.299,0.83 -4.131,4.045 -5.262,6.599 -0.984,2.218 -2.49,6.313 -2.758,8.467 -0.072,0.576 0.045,1.39 0.17,2.251 0.135,0.945 0.273,1.924 0.141,2.504 -0.205,0.901 -1.023,2.014 -1.814,3.094 z m 5.707,-18.409 c 0.611,-1.075 1.361,-2.173 2.211,-2.995 0.488,0.98 3.32,7.141 1.145,14.28 -0.093,-4.801 -2.911,-10.426 -3.356,-11.285 z m -7.164,21.488 c 0.254,-0.829 0.998,-1.846 1.721,-2.832 0.816,-1.111 1.658,-2.26 1.885,-3.242 0.148,-0.66 0.004,-1.679 -0.137,-2.664 -0.115,-0.795 -0.23,-1.617 -0.166,-2.134 0.068,-0.563 0.227,-1.266 0.438,-2.031 0.691,0.561 3.449,3.299 0.965,9.562 -0.191,0.14 -0.375,0.263 -0.543,0.343 -0.771,0.369 -1.074,0.946 -1.369,1.505 -0.326,0.618 -0.662,1.258 -1.666,1.733 -0.677,0.321 -1.019,-0.076 -1.128,-0.24 z" fill="#c27b55" stroke-width="none" opacity="1" stroke="none"></path>
            </g>
          </g>
          <g id="SvgjsG1085" transform="matrix(0.9799999,0,0,0.9998999,1.9973901,0.00814483)">
            <g id="SvgjsG1084">
              <path id="SvgjsPath1083" d="M 100.002,0.867 C 66.384,0.92 39.082,28.536 39.134,62.56 c 0.009,5.403 0.704,10.642 2.002,15.634 h 10e-4 c 0.012,0.054 10.289,31.434 12.948,44.055 2.38,11.298 12.959,20.462 17.72,25.456 5.47,5.742 12.307,14.237 28.197,14.162 15.889,0.075 22.727,-8.42 28.197,-14.162 4.761,-4.994 15.34,-14.158 17.72,-25.456 2.659,-12.621 12.937,-44 12.947,-44.055 h 0.002 C 160.166,73.202 160.862,67.963 160.87,62.56 160.923,28.536 133.62,0.92 100.002,0.867 Z" fill="#f0c7b1" stroke-width="none" opacity="1" stroke="none"></path>
              <path id="SvgjsPath1082" d="m 133.47,11.063 c 14.604,11.197 24.131,29.487 24.1,50.155 -0.008,5.403 -0.664,10.643 -1.892,15.634 h -0.002 c -0.011,0.054 -9.73,31.432 -12.246,44.052 -2.251,11.3 -12.256,20.462 -16.76,25.458 -5.173,5.742 -11.64,14.237 -26.667,14.162 -15.028,0.075 -21.495,-8.42 -26.668,-14.162 C 68.833,141.366 58.827,132.204 56.576,120.904 54.06,108.284 44.341,76.906 44.329,76.852 H 44.328 C 43.1,71.86 42.443,66.621 42.435,61.218 42.405,40.55 51.932,22.26 66.536,11.064 50.014,22.105 39.103,41.046 39.136,62.56 c 0.009,5.403 0.704,10.642 2.002,15.634 h 0.001 c 0.012,0.054 10.289,31.434 12.948,44.055 2.38,11.298 12.959,20.462 17.72,25.456 5.47,5.742 12.307,14.237 28.197,14.162 15.889,0.075 22.727,-8.42 28.197,-14.162 4.761,-4.994 15.34,-14.158 17.72,-25.456 2.659,-12.621 12.937,-44 12.947,-44.055 h 0.002 c 1.298,-4.992 1.994,-10.231 2.002,-15.634 0.031,-21.514 -10.88,-40.456 -27.402,-51.497 z" fill="#e8b9a0" stroke-width="none" opacity="1" stroke="none"></path>
              <path id="SvgjsPath1081" d="M 100.002,0.867 C 66.384,0.92 39.082,28.536 39.134,62.56 c 0.009,5.403 0.704,10.642 2.002,15.634 h 10e-4 c 0.012,0.054 10.289,31.434 12.948,44.055 2.38,11.298 12.959,20.462 17.72,25.456 5.47,5.742 12.307,14.237 28.197,14.162 15.889,0.075 22.727,-8.42 28.197,-14.162 4.761,-4.994 15.34,-14.158 17.72,-25.456 2.659,-12.621 12.937,-44 12.947,-44.055 h 0.002 C 160.166,73.202 160.862,67.963 160.87,62.56 160.923,28.536 133.62,0.92 100.002,0.867 Z" fill="none" stroke="#c27b55" stroke-width="1.5" opacity="1"></path>
            </g>
          </g>
          <g id="SvgjsG1080">
            <g id="SvgjsG1079">
              <path id="SvgjsPath1078" d="m 99.999,139.499 c -5.771,0 -7.125,-2.385 -7.125,-2.385 h 14.253 c 0,0 -2.053,2.385 -7.128,2.385 z" fill="url(#SvgjsLinearGradient4827)" opacity="1" style="fill:url(#SvgjsLinearGradient4827)"></path>
              <path id="SvgjsPath1077" d="m 82.714,133.245 c 3.826,-0.701 8.662,-2.674 11.707,-2.744 1.573,-0.038 3.262,0.642 4.961,0.859 1.18,0.153 4.529,-0.853 5.732,-0.859 3.155,-0.018 8.781,2.043 12.174,2.744 0.185,0.043 0,0 0,0 0,0 -7.021,4.444 -17.287,4.444 -11.62,0 -17.287,-4.444 -17.287,-4.444 0,0 -0.189,0.038 0,0 z" fill="#f18f77" stroke-width="none" opacity="1" stroke="none"></path>
              <path id="SvgjsPath1076" d="m 117.761,133.204 c -0.258,-0.056 -0.84,-0.021 -1.045,-0.016 -0.422,0.013 -0.756,-0.085 -1.682,-0.094 -1.033,-0.009 -5.48,-0.199 -6.948,-0.25 -2.954,-0.106 -5.31,0.49 -8.118,0.49 -2.811,0 -5.368,-0.653 -8.323,-0.548 -1.466,0.056 -5.709,0.293 -6.743,0.308 -0.921,0.013 -1.282,0.098 -1.709,0.089 -0.199,-0.007 -0.827,-0.037 -1.072,0.034 -0.203,0.064 -0.124,0.414 0.04,0.505 0.395,0.22 1.938,-0.171 2.719,-0.161 1.078,0.011 5.335,-0.037 6.826,-0.09 2.888,-0.104 5.464,0.606 8.262,0.606 2.801,0 5.173,-0.657 8.063,-0.553 1.485,0.053 5.941,0.044 7.021,0.036 0.783,-0.01 2.45,0.33 2.849,0.161 0.19,-0.08 0.088,-0.467 -0.14,-0.517 z" fill="#c34526" stroke-width="none" opacity="1" stroke="none"></path>
              <path id="SvgjsPath1075" d="m 87.409,134.113 c 1.815,-0.054 3.684,-0.205 5.5,-0.162 2.239,0.052 4.365,0.521 6.604,0.6 2.417,0.085 4.659,-0.36 7.028,-0.515 1.975,-0.123 4.068,0.044 6.05,0.084 -9.292,3.785 -19.204,2.624 -25.182,-0.007 z m 19.479,-1.808 c 1.823,-0.063 3.693,0.062 5.516,0.103 -9.196,-2.434 -7.134,-0.943 -11.926,-0.519 -2.092,0.186 -3.736,-0.851 -5.776,-0.851 -2.21,0.052 -4.438,0.812 -6.352,1.335 1.779,-0.06 3.608,-0.194 5.392,-0.104 2.181,0.105 4.295,0.526 6.498,0.526 2.249,0.001 4.4,-0.42 6.648,-0.49 z" fill="#f99e87" stroke-width="none" opacity="1" stroke="none"></path>
              <path id="SvgjsPath1074" d="m 87.409,134.113 c 1.815,-0.054 3.684,-0.205 5.5,-0.162 2.239,0.052 4.365,0.521 6.604,0.6 2.417,0.085 4.659,-0.36 7.028,-0.515 1.975,-0.123 4.068,0.044 6.05,0.084 -9.292,3.785 -19.204,2.624 -25.182,-0.007 z m 19.479,-1.808 c 1.823,-0.063 3.693,0.062 5.516,0.103 -9.196,-2.434 -7.134,-0.943 -11.926,-0.519 -2.092,0.186 -3.736,-0.851 -5.776,-0.851 -2.21,0.052 -4.438,0.812 -6.352,1.335 1.779,-0.06 3.608,-0.194 5.392,-0.104 2.181,0.105 4.295,0.526 6.498,0.526 2.249,0.001 4.4,-0.42 6.648,-0.49 z" fill="#ffac97" stroke-width="none" opacity="1" stroke="none"></path>
            </g>
          </g>
          <g id="SvgjsG1073" transform="translate(0,1)">
            <g id="SvgjsG1072">
              <g id="SvgjsG1071">
                <path id="SvgjsPath1070" d="m 60.432,80.957 c 1.226,-1.179 9.091,-2.674 13.631,-2.075 7.183,0.947 13,7.285 13,7.285 0,0 -4.836,3.083 -13.61,3.56 -5.78,0.315 -11.593,-3.418 -13.021,-8.77 z" fill="url(#SvgjsRadialGradient4234)" opacity="1" style="fill:url(#SvgjsRadialGradient4234)"></path>
              </g>
              <g id="SvgjsG1069" transform="translate(0.25)">
                <g id="SvgjsG1068">
                  <g id="SvgjsG1067">
                    <path id="SvgjsPath1066" d="m 80,84 c 0,3.313 -2.687,5.999 -6,5.999 -3.313,0 -6,-2.686 -6,-5.999 0,-3.316 2.687,-6.001 6,-6.001 3.313,0 6,2.686 6,6.001 z" fill="#3e4442" stroke-width="none" opacity="1"></path>
                    <path id="SvgjsPath1065" d="m 70.512,86.805 c 0.875,-0.072 0.1,-0.306 0.1,-0.306 -0.433,-0.233 -1.248,-0.592 -1.248,-0.921 0,-1.031 1.414,-1.299 -0.034,-1.705 -1.504,-1.38 1.167,-1.352 1.147,-1.398 -0.975,-2.376 0.299,-1.071 0.835,-1.773 1.988,-2.599 0.554,0.267 1.633,0 0.391,-0.096 -0.78,-1.531 0.034,-1.33 0.539,0.132 0.662,0.58 0.662,0.58 0.393,-0.077 1.008,-0.682 1.008,-0.682 0.749,0.226 1.275,1.29 1.043,1.091 0.368,-0.045 0.884,-0.221 1.286,-0.341 0,0 0.07,-0.239 0.139,-0.033 0.917,2.661 3.284,2.47 0.559,3.24 0,0 -0.176,0 0.382,0.442 2.71,2.164 -2.102,1.495 0.451,2.49 0.104,-0.104 -1.53,0.965 -1.53,1.261 0,0.501 -1.042,1.818 -1.946,1.3 -0.504,-0.288 -0.581,0.6 -0.877,0.19 -0.581,-0.803 -1.742,-0.035 -1.313,-0.773 0.634,-0.521 -0.654,0.204 -0.904,0.204 -0.828,0 1.083,-2.783 3.894,-0.715 0.822,0.602 -0.864,-1.433 0.625,-1.433 0.149,0.049 0.104,-0.521 0.104,-0.682 -0.774,-0.151 1.39,-0.003 1.39,-1.262 0.137,0.027 0.509,-0.35 -1.635,0 0,0 -0.068,-0.75 -0.034,-0.886 0.11,-0.438 1.214,-0.298 0.904,-0.75 0,-0.001 -0.799,-1.604 -0.799,-1.604 -2.573,-0.414 -1.102,-0.672 -2.711,-0.341 -0.076,0.378 -3.445,1.984 -3.338,2.729 0.1,0.702 2.115,0.938 0.208,2.182 2.858,5.472 -2.11,-0.125 -0.035,1.226 z" fill="#535353" stroke-width="none" opacity="1"></path>
                    <path id="SvgjsPath1064" d="m 74,78.749 0.171,4.393 1.837,-3.993 -1.523,4.123 3.227,-2.985 -2.985,3.226 4.124,-1.523 -3.992,1.839 4.392,0.17 -4.392,0.17 3.992,1.839 -4.124,-1.523 2.985,3.226 -3.227,-2.985 1.523,4.123 -1.837,-3.993 -0.171,4.393 -0.171,-4.393 -1.838,3.993 1.522,-4.123 -3.226,2.985 2.985,-3.226 -4.124,1.523 3.992,-1.839 -4.39,-0.17 4.39,-0.17 -3.992,-1.839 4.124,1.523 -2.985,-3.226 3.226,2.985 -1.522,-4.123 1.838,3.993 z" fill="#1b2522" stroke-width="none" opacity="1"></path>
                    <path id="SvgjsPath1063" d="m 74.796,80.067 -0.539,3.315 1.981,-2.711 -1.766,2.857 2.87,-1.748 -2.725,1.964 3.319,-0.515 -3.268,0.771 3.266,0.794 -3.317,-0.538 2.712,1.982 -2.858,-1.765 1.748,2.869 -1.964,-2.725 0.516,3.319 -0.771,-3.27 -0.795,3.264 0.539,-3.315 -1.984,2.711 1.768,-2.857 -2.869,1.748 2.725,-1.964 -3.319,0.516 3.269,-0.771 -3.264,-0.793 3.315,0.537 -2.712,-1.982 2.858,1.765 -1.747,-2.869 1.964,2.725 -0.516,-3.318 0.772,3.27 z" fill="#0e1613" stroke-width="none" opacity="1"></path>
                    <path id="SvgjsPath1062" d="m 76.25,84 c 0,1.243 -1.008,2.25 -2.25,2.25 -1.242,0 -2.25,-1.007 -2.25,-2.25 0,-1.243 1.008,-2.25 2.25,-2.25 1.242,0 2.25,1.007 2.25,2.25 z" fill="#000000" stroke-width="none" opacity="0.9"></path>
                    <path id="SvgjsPath1061" d="m 71.637,88.311 c -0.331,0.332 -0.985,0.215 -1.46,-0.261 -0.476,-0.475 -0.593,-1.129 -0.261,-1.461 0.331,-0.331 0.985,-0.214 1.46,0.261 0.476,0.476 0.593,1.129 0.261,1.461 z" fill="#ffffff" stroke-width="none" opacity="0.7"></path>
                    <path id="SvgjsPath1060" d="m 78.806,82.818 c -0.496,0.496 -1.697,0.1 -2.682,-0.886 -0.986,-0.986 -1.382,-2.187 -0.886,-2.683 0.496,-0.496 1.697,-0.1 2.682,0.886 0.986,0.987 1.382,2.187 0.886,2.683 z" fill="#ffffff" stroke-width="none" opacity="0.9"></path>
                  </g>
                </g>
              </g>
              <g id="SvgjsG1059">
                <path id="SvgjsPath1058" d="m 55.132,85 c 0,13.808 12.668,20.999 18,20.999 9.94,0 18,-7.191 18,-20.999 0,-13.809 -8.06,-25.001 -18,-25.001 -9.94,0 -18,11.192 -18,25.001 z m 5.3,-4.043 c 1.226,-1.179 9.091,-2.674 13.631,-2.075 7.183,0.947 13,7.285 13,7.285 0,0 -4.836,3.083 -13.61,3.56 -5.78,0.315 -11.593,-3.418 -13.021,-8.77 z" fill="#f0c7b1" stroke-width="none" opacity="1" stroke="none"></path>
                <path id="SvgjsPath1057" d="m 73.981,93.592 c 9.412,2.223 18.451,-1.61 20.194,-8.565 C 95.913,78.071 89.697,70.632 80.283,68.405 70.869,66.181 61.83,70.014 60.088,76.97 58.35,83.927 64.564,91.365 73.981,93.592 Z M 60.432,80.957 c 1.226,-1.179 9.091,-2.674 13.631,-2.075 7.183,0.947 13,7.285 13,7.285 0,0 -4.836,3.083 -13.61,3.56 -5.78,0.315 -11.593,-3.418 -13.021,-8.77 z" fill="url(#SvgjsRadialGradient4260)" opacity="1" style="fill:url(#SvgjsRadialGradient4260)"></path>
                <path id="SvgjsPath1056" d="m 60.432,80.957 c 1.226,-1.179 9.091,-2.674 13.631,-2.075 7.183,0.947 13,7.285 13,7.285 0,0 -4.836,3.083 -13.61,3.56 -5.78,0.315 -11.593,-3.418 -13.021,-8.77 z" fill="url(#SvgjsRadialGradient4265)" opacity="1" style="fill:url(#SvgjsRadialGradient4265)"></path>
                <path id="SvgjsPath1055" d="m 86.632,82.458 c -6.502,-4.251 -4.054,-3.09 -16.23,-6.703 3.344,0.5 9.572,2.066 11.707,3.32 1.163,0.654 3.523,2.509 4.523,3.383 z" fill="#c27b55" stroke-width="none" opacity="1" stroke="none"></path>
                <path id="SvgjsPath1054" d="m 58.853,80.886 c 1.947,4.926 9.734,13.961 29.285,5.533 -3.097,-3.36 -11.005,-9.113 -18.159,-9.063 -5.993,0.041 -9.342,1.909 -11.126,3.53 z m 1.579,0.188 c 1.226,-1.137 9.091,-2.58 13.631,-2.001 7.183,0.913 13,7.026 13,7.026 0,0 -4.836,2.974 -13.61,3.434 -5.78,0.303 -11.593,-3.297 -13.021,-8.459 z" fill="#2a150e" stroke-width="none" opacity="1" stroke="none"></path>
              </g>
            </g>
          </g>
          <g id="SvgjsG1053" transform="translate(0,1)">
            <g id="SvgjsG1052">
              <g id="SvgjsG1051">
                <path id="SvgjsPath1050" d="m 139.169,80.957 c -1.226,-1.179 -9.091,-2.674 -13.631,-2.075 -7.183,0.947 -13,7.285 -13,7.285 0,0 4.836,3.083 13.61,3.56 5.78,0.315 11.592,-3.418 13.021,-8.77 z" fill="url(#SvgjsRadialGradient4242)" opacity="1" style="fill:url(#SvgjsRadialGradient4242)"></path>
              </g>
              <g id="SvgjsG1049" transform="translate(-0.25)">
                <g id="SvgjsG1048">
                  <g id="SvgjsG1047">
                    <path id="SvgjsPath1046" d="m 132,83.999 c 0,3.316 -2.684,6 -6,6 -3.316,0 -6,-2.684 -6,-6 0,-3.316 2.684,-6 6,-6 3.316,0 6,2.684 6,6 z" fill="#3e4442" stroke-width="none" opacity="1"></path>
                    <path id="SvgjsPath1045" d="m 122.508,86.806 c 0.879,-0.076 0.105,-0.305 0.105,-0.305 -0.434,-0.234 -1.254,-0.592 -1.254,-0.926 0,-1.031 1.418,-1.295 -0.023,-1.705 -1.512,-1.377 1.16,-1.348 1.137,-1.395 -0.973,-2.379 0.305,-1.072 0.844,-1.775 1.98,-2.596 0.551,0.27 1.629,0 0.387,-0.094 -0.785,-1.529 0.035,-1.33 0.539,0.135 0.656,0.58 0.656,0.58 0.398,-0.076 1.008,-0.68 1.008,-0.68 0.75,0.223 1.277,1.289 1.043,1.09 0.375,-0.047 0.891,-0.223 1.289,-0.34 0,0 0.07,-0.24 0.141,-0.035 0.914,2.66 3.281,2.473 0.563,3.24 0,0 -0.176,0 0.375,0.439 2.707,2.168 -2.098,1.494 0.457,2.49 0.105,-0.1 -1.535,0.967 -1.535,1.266 0,0.498 -1.043,1.816 -1.945,1.295 -0.504,-0.287 -0.586,0.604 -0.879,0.193 -0.574,-0.803 -1.746,-0.035 -1.313,-0.773 0.633,-0.521 -0.656,0.205 -0.902,0.205 -0.832,0 1.078,-2.783 3.891,-0.715 0.82,0.598 -0.867,-1.436 0.633,-1.436 0.141,0.047 0.105,-0.521 0.105,-0.68 -0.785,-0.152 1.383,-0.006 1.383,-1.266 0.141,0.029 0.516,-0.346 -1.629,0 0,0 -0.07,-0.75 -0.035,-0.885 0.105,-0.439 1.207,-0.299 0.902,-0.75 l -0.797,-1.605 c -2.578,-0.41 -1.102,-0.668 -2.719,-0.34 -0.07,0.381 -3.445,1.986 -3.34,2.73 0.105,0.703 2.121,0.938 0.211,2.18 2.858,5.481 -2.11,-0.121 -0.036,1.233 z" fill="#535353" stroke-width="none" opacity="1"></path>
                    <path id="SvgjsPath1044" d="m 126,78.749 0.176,4.395 1.828,-3.996 -1.523,4.125 3.234,-2.988 -2.988,3.229 4.125,-1.523 -3.996,1.84 4.395,0.17 -4.395,0.17 3.996,1.84 -4.125,-1.523 2.988,3.229 -3.234,-2.988 1.523,4.125 -1.828,-3.996 -0.176,4.391 -0.176,-4.395 -1.84,3.996 1.523,-4.125 -3.223,2.988 2.988,-3.229 -4.125,1.523 3.996,-1.84 -4.395,-0.17 4.395,-0.17 -3.996,-1.84 4.125,1.523 -2.988,-3.229 3.223,2.988 -1.523,-4.125 1.84,3.996 z" fill="#1b2522" stroke-width="none" opacity="1"></path>
                    <path id="SvgjsPath1043" d="m 126.797,80.067 -0.539,3.316 1.98,-2.713 -1.77,2.859 2.871,-1.752 -2.719,1.969 3.316,-0.516 -3.27,0.768 3.27,0.797 -3.316,-0.539 2.707,1.98 -2.859,-1.764 1.746,2.871 -1.957,-2.725 0.516,3.316 -0.773,-3.267 -0.797,3.264 0.539,-3.316 -1.98,2.713 1.77,-2.859 -2.871,1.752 2.719,-1.969 -3.316,0.516 3.27,-0.768 -3.27,-0.797 3.316,0.539 -2.707,-1.98 2.859,1.764 -1.746,-2.871 1.957,2.725 -0.516,-3.316 0.773,3.27 z" fill="#0e1613" stroke-width="none" opacity="1"></path>
                    <path id="SvgjsPath1042" d="m 128.25,83.999 c 0,1.242 -1.008,2.25 -2.25,2.25 -1.242,0 -2.25,-1.008 -2.25,-2.25 0,-1.242 1.008,-2.25 2.25,-2.25 1.242,0 2.25,1.008 2.25,2.25 z" fill="#000000" stroke-width="none" opacity="0.9"></path>
                    <path id="SvgjsPath1041" d="m 123.633,88.312 c -0.328,0.328 -0.984,0.217 -1.453,-0.264 -0.48,-0.475 -0.598,-1.125 -0.258,-1.459 0.328,-0.328 0.984,-0.211 1.453,0.264 0.48,0.474 0.598,1.125 0.258,1.459 z" fill="#ffffff" stroke-width="none" opacity="0.7"></path>
                    <path id="SvgjsPath1040" d="m 130.805,82.815 c -0.492,0.498 -1.699,0.105 -2.684,-0.885 -0.984,-0.984 -1.383,-2.186 -0.879,-2.678 0.492,-0.498 1.688,-0.105 2.672,0.885 0.996,0.985 1.383,2.186 0.891,2.678 z" fill="#ffffff" stroke-width="none" opacity="0.9"></path>
                  </g>
                </g>
              </g>
              <g id="SvgjsG1039">
                <path id="SvgjsPath1038" d="m 126.469,59.999 c -9.94,0 -18,11.193 -18,25.001 0,13.808 8.06,20.999 18,20.999 7.201,0 18,-7.191 18,-20.999 0,-13.809 -8.06,-25.001 -18,-25.001 z m -0.321,29.728 c -8.774,-0.476 -13.61,-3.56 -13.61,-3.56 0,0 5.817,-6.338 13,-7.285 4.54,-0.6 12.405,0.896 13.631,2.075 -1.429,5.352 -7.241,9.085 -13.021,8.77 z" fill="#f0c7b1" stroke-width="none" opacity="1" stroke="none"></path>
                <path id="SvgjsPath1037" d="m 139.512,76.971 c -1.742,-6.956 -10.781,-10.79 -20.195,-8.565 -9.414,2.227 -15.63,9.666 -13.892,16.622 1.743,6.955 10.782,10.788 20.194,8.565 9.417,-2.228 15.632,-9.666 13.893,-16.622 z m -13.364,12.756 c -8.774,-0.476 -13.61,-3.56 -13.61,-3.56 0,0 5.817,-6.338 13,-7.285 4.54,-0.6 12.405,0.896 13.631,2.075 -1.429,5.352 -7.241,9.085 -13.021,8.77 z" fill="url(#SvgjsRadialGradient4281)" opacity="1" style="fill:url(#SvgjsRadialGradient4281)"></path>
                <path id="SvgjsPath1036" d="m 139.169,80.957 c -1.226,-1.179 -9.091,-2.674 -13.631,-2.075 -7.183,0.947 -13,7.285 -13,7.285 0,0 4.836,3.083 13.61,3.56 5.78,0.315 11.592,-3.418 13.021,-8.77 z" fill="url(#SvgjsRadialGradient4286)" opacity="1" style="fill:url(#SvgjsRadialGradient4286)"></path>
                <path id="SvgjsPath1035" d="m 112.969,82.458 c 6.502,-4.251 4.054,-3.09 16.23,-6.703 -3.344,0.5 -9.572,2.066 -11.707,3.32 -1.164,0.654 -3.523,2.509 -4.523,3.383 z" fill="#c27b55" stroke-width="none" opacity="1" stroke="none"></path>
                <path id="SvgjsPath1034" d="m 129.622,77.355 c -7.154,-0.05 -15.063,5.703 -18.159,9.063 19.551,8.428 27.338,-0.607 29.285,-5.533 -1.784,-1.62 -5.134,-3.488 -11.126,-3.53 z m -3.474,12.178 c -8.774,-0.459 -13.61,-3.434 -13.61,-3.434 0,0 5.817,-6.113 13,-7.026 4.54,-0.579 12.405,0.864 13.631,2.001 -1.429,5.162 -7.241,8.762 -13.021,8.459 z" fill="#2a150e" stroke-width="none" opacity="1" stroke="none"></path>
              </g>
            </g>
          </g>
          <g id="SvgjsG1033">
            <path id="SvgjsPath1032" d="m 141,113.974 c 0.035,22.622 -18.292,40.994 -40.938,41.025 -22.642,0.037 -41.028,-18.273 -41.063,-40.9 -0.035,-22.62 18.292,-41.064 40.937,-41.1 22.643,-0.035 41.031,18.35 41.064,40.975 z" fill="url(#SvgjsRadialGradient3281)" opacity="1" style="fill:url(#SvgjsRadialGradient3281)"></path>
            <path id="SvgjsPath1031" d="m 137.5,53.999 c 0,20.711 -16.789,37.5 -37.499,37.5 -20.711,0 -37.501,-16.789 -37.501,-37.5 0,-20.711 16.79,-37.5 37.501,-37.5 20.71,0 37.499,16.789 37.499,37.5 z" fill="url(#SvgjsRadialGradient3285)" opacity="1" style="fill:url(#SvgjsRadialGradient3285)"></path>
          </g>
          <g id="SvgjsG1030">
            <g id="SvgjsG1029">
              <g id="SvgjsG1028">
                <path id="SvgjsPath1027" d="m 54,74.189 c 9.954,-9.974 16.761,-5.915 30.589,-3.264 0.845,0.162 6.32,1.539 5.31,3.469 -0.483,0.924 -2.036,0.814 -2.903,0.798 C 73.308,74.936 66.652,65.197 54,74.189 Z" fill="#080806" stroke-width="none" opacity="1"></path>
              </g>
            </g>
          </g>
          <g id="SvgjsG1026">
            <g id="SvgjsG1025">
              <g id="SvgjsG1024">
                <path id="SvgjsPath1023" d="m 146,74.189 c -9.953,-9.974 -16.761,-5.915 -30.589,-3.264 -0.846,0.162 -6.32,1.539 -5.311,3.469 0.483,0.924 2.036,0.814 2.903,0.798 13.688,-0.256 20.345,-9.995 32.997,-1.003 z" fill="#080806" stroke-width="none" opacity="1"></path>
              </g>
            </g>
          </g>
          <g id="SvgjsG1022">
            <g id="SvgjsG1021">
              <path id="SvgjsPath1020" d="m 105.07,117.886 c 1.053,0 1.338,0.28 1.338,0.625 0,0.347 -0.328,0.879 -1.338,0.624 -1.109,-0.276 -3.046,-0.148 -3.046,-0.148 0,0 1.994,-1.101 3.046,-1.101 z m -10.053,0 c -1.054,0.001 -1.337,0.282 -1.337,0.628 -0.001,0.345 0.317,0.842 1.337,0.624 1.125,-0.241 3.046,-0.149 3.046,-0.149 0,0 -1.992,-1.099 -3.046,-1.103 z m 13.592,-3.738 c 0,0 1.458,1.654 1.154,3.403 -0.294,1.699 -3.238,2.447 -3.238,2.447 0,0 2.044,-1.297 2.292,-2.873 0.116,-0.735 -0.208,-2.977 -0.208,-2.977 z m -17.992,-1.702 c 0,0 -1.063,2.316 -0.755,3.727 0.558,2.547 3.625,3.565 3.625,3.565 0,0 -1.914,-1.747 -2.594,-3.291 -0.744,-1.684 -0.276,-4.001 -0.276,-4.001 z" fill="#c27b55" stroke-width="none" opacity="1" stroke="none"></path>
              <path id="SvgjsPath1019" d="m 105.019,115.38 c 1.021,-0.761 1.124,-1.195 0.912,-1.479 -0.21,-0.284 -0.823,-0.464 -1.678,0.453 -0.942,1.012 -2.991,1.758 -2.991,1.758 0,0 2.735,0.031 3.757,-0.732 z" fill="#ffe4d6" stroke-width="none" opacity="1" stroke="none"></path>
            </g>
          </g>
          <g id="SvgjsG1018" transform="matrix(0.9799999,0,0,0.9998999,2.00001,0.00181481)">
            <g id="SvgjsG1017">
              <g id="SvgjsG1016">
                <path id="SvgjsPath1015" d="M 100,18.13 Z" fill="#2a232b" stroke-width="none" opacity="1"></path>
              </g>
            </g>
          </g>
          <g id="SvgjsG1014">
            <g id="SvgjsG1013">
              <path id="SvgjsPath1012" d="M 100,18.13 Z" fill="#2a232b" stroke-width="none" opacity="1"></path>
            </g>
          </g>
          <g id="SvgjsG1011" transform="matrix(0.9799999,0,0,0.9998999,2.0000108,0.0045627)">
            <path id="SvgjsPath1010" d="M 158.43,41.325 C 140,-4.765 100,0.405 100,0.405 c 0,0 -40,-5.169 -58.43,40.92 -9.245,23.12 2.158,50.324 2.158,50.324 h 5.826 C 44.46,69.897 50.35,73.987 50.73,69.927 c 0.118,-1.255 -0.3,-3.367 -0.421,-4.622 -0.592,-6.112 1.982,-18.029 5.245,-23.173 1.603,-2.526 5.369,-6.659 8.174,-7.699 9.97,-3.694 20.044,0.715 22.854,1.421 4.461,1.12 22.373,1.12 26.836,0 3.343,-0.839 13.182,-4.905 22.854,-1.321 2.806,1.04 6.871,4.972 8.474,7.499 3.263,5.144 5.537,16.16 4.945,22.272 -0.121,1.255 -0.539,4.367 -0.422,5.623 0.107,1.147 2.617,3.689 2.898,4.807 1.16,4.612 -1.722,16.915 -1.722,16.915 h 5.825 c 10e-4,0 11.406,-27.204 2.16,-50.324 z" fill="#080806" stroke-width="none" opacity="1" stroke="none"></path>
            <path id="SvgjsPath1009" d="M 154.938,31.163 C 136.178,-3.114 101.979,-0.631 100,-0.455 98.021,-0.631 63.823,-3.114 45.062,31.163 30.57,57.641 41.57,88.137 42.907,91.612 42.983,91.809 44.483,91.65 44.483,91.65 44.477,91.635 44.379,91.258 44.317,91.1 43.108,87.98 32.128,57.92 46.378,31.884 65.111,-2.342 99.595,1.007 99.94,1.046 l 0.06,-0.542 0.06,0.542 c 0.345,-0.039 34.829,-3.388 53.563,30.837 14.563,26.61 2.773,57.423 1.996,59.383 -0.021,0.055 -0.107,0.375 -0.111,0.383 0,0 1.506,0.169 1.575,-0.011 1.291,-3.344 12.384,-33.929 -2.145,-60.475 z" fill="#000000" stroke-width="none" opacity="1" stroke="none"></path>
          </g>
          <g id="SvgjsG1008">
            <g id="SvgjsG1007">
              <path id="SvgjsPath1006" d="m 143.62,100.1 c -2.36,2.2 -6.23,3.04 -13.56,3.04 -9.78,0 -16.18,-1.09 -20.41,-9.51 -3.29,-6.54 -4.62,-13.56 -3.02,-15.98 2.21,-3.34 8.57,-5.61 15.67,-6.28 12.33,5.86 20.99,17.61 21.32,28.73 z M 72.01,71.17 c -7.64,0.21 -15.09,2.35 -18.27,7.05 -2.18,3.21 -1.69,12.55 -0.22,16.94 2,5.99 5.07,7.98 16.42,7.98 9.78,0 16.18,-1.09 20.41,-9.51 0.42,-0.84 0.81,-1.69 1.17,-2.54 C 88.29,82.95 81.16,75.43 72.01,71.17 Z" fill="#ffffff" stroke-width="none" opacity="0.2"></path>
              <path id="SvgjsPath1005" d="m 146.48,95.17 c -0.71,2.12 -1.56,3.73 -2.86,4.94 -0.33,-11.12 -8.99,-22.87 -21.33,-28.74 9.37,-0.89 19.99,0.99 23.97,6.86 2.18,3.21 1.69,12.54 0.22,16.94 z M 93.38,77.65 c -2.79,-4.23 -12.22,-6.73 -21.37,-6.47 9.16,4.25 16.28,11.77 19.52,19.92 2.41,-5.74 3.24,-11.34 1.85,-13.45 z" fill="#ffffff" stroke-width="none" opacity="0.4"></path>
              <path id="SvgjsPath1004" d="m 151.79,73.61 c -10.18,-5.46 -36.14,-7.01 -45.5,0.15 -0.8,0.47 -4.23,-0.53 -6.29,-0.53 -1.95,0 -5.42,1.05 -6.29,0.53 -9.36,-7.16 -35.32,-5.61 -45.5,-0.15 -1.46,0.79 -1.62,4.51 -0.35,5.08 0.91,0.41 1.51,0.98 1.46,1.98 -0.32,5.62 1.23,12.92 1.91,14.93 0.87,2.59 2.44,7.41 9.29,8.6 5.83,1.01 16.43,1.48 21.94,-0.17 9.99,-2.98 14.24,-18.04 14.42,-23.17 l 0.01,0.02 c 0.4,-1.8 5.82,-1.8 6.23,0 l 0.01,-0.02 c 0.17,5.13 4.43,20.19 14.42,23.17 5.51,1.65 16.11,1.18 21.94,0.17 6.85,-1.19 8.42,-6.01 9.29,-8.6 0.68,-2.02 2.23,-9.31 1.92,-14.93 -0.05,-1 0.56,-1.57 1.46,-1.98 1.25,-0.57 1.09,-4.29 -0.37,-5.08 z m -70.38,27.75 c -5.06,1.51 -14.32,1.61 -19.71,0.67 C 57.16,101.24 55.26,98.77 54,95 52.52,90.6 52.13,81.49 54.16,78.5 c 6.76,-9.98 33.87,-8.05 38.8,-0.58 2.2,3.35 -2.07,20.61 -11.55,23.44 z M 146,95.01 c -1.26,3.77 -3.17,6.24 -7.7,7.03 -5.39,0.94 -14.65,0.84 -19.71,-0.67 -9.48,-2.83 -13.75,-20.09 -11.55,-23.44 4.93,-7.47 32.04,-9.4 38.8,0.58 2.03,2.98 1.64,12.1 0.16,16.5 z" fill="#101010" stroke-width="none" opacity="1" stroke="none"></path>
              <path id="SvgjsPath1003" d="m 118.58,101.32 c 2.79,0.83 6.86,1.24 10.85,1.27 -12.54,1.22 -15.39,-3.4 -17.12,-5.16 -3.52,-3.59 -5.69,-8.95 -5.85,-16.65 0.03,6.08 4.3,18.21 12.12,20.54 z M 93.69,73.72 C 84.33,66.56 58.37,68.1 48.19,73.57 71.43,67.05 84.93,70.42 93.69,73.72 Z M 61.68,102 c -4.54,-0.79 -6.44,-3.26 -7.7,-7.03 -1.32,-3.93 -1.77,-11.62 -0.4,-15.35 -1.83,4.22 -1.12,12.39 0.26,16.5 1.6,4.8 4.54,7.18 17.34,6.46 -3.47,0.07 -6.93,-0.14 -9.5,-0.58 z m 91.29,-25.7 c -0.04,-1.13 -0.45,-2.32 -1.2,-2.73 -9.98,-5.36 -35.14,-6.94 -44.93,-0.25 13.16,-5.27 32.13,-6.01 46.13,2.98 z" fill="#1f1f1f" stroke-width="none" opacity="1" stroke="none"></path>
            </g>
          </g>
        </g>
      </g>
    </g>
  </g>
  <rect id="SvgjsRect1002" width="200" height="15" x="0" y="185" fill="#ecf0f1" opacity="0.5" style="display:none"></rect>
  <text id="SvgjsText1001" font-family="'Avenir Next', Roboto, Helvetica, Arial, sans-serif" font-size="10px" text-anchor="start" font-weight="400" size="10px" anchor="start" weight="400" fill="#333333" x="33.3125" y="182.60938" style="display:none" svgjs:data="{&quot;leading&quot;:&quot;1.3&quot;}"><tspan id="SvgjsTspan1000" dy="13" x="33.3125" svgjs:data="{&quot;leading&quot;:&quot;1.3&quot;}">Created on AvatarMaker.com</tspan></text>
</svg><style>@media (prefers-color-scheme: light) { :root { filter: none; } }
</style></svg>